<svg width="139" height="28" fill="none" xmlns="http://www.w3.org/2000/svg">
  <path d="M93.53 21c4.16 0 6.47-2.48 6.47-6.04 0-3.55-2.31-6.03-6.47-6.03h-4.1V21h4.1Zm4.3-6.04c0 2.5-1.4 4.14-4.37 4.14h-1.97v-8.27h1.97c2.97 0 4.37 1.64 4.37 4.13Zm5.9 0c0-2.6 1.7-4.31 4.06-4.31 2.36 0 4.06 1.71 4.06 4.31 0 2.6-1.7 4.32-4.06 4.32-2.37 0-4.07-1.71-4.07-4.32Zm-2.18 0a6.06 6.06 0 0 0 6.24 6.3c3.67 0 6.24-2.7 6.24-6.3a6.06 6.06 0 0 0-6.24-6.29 6.06 6.06 0 0 0-6.24 6.3Zm14.01-.01c0 3.72 2.52 6.29 6.03 6.29 3 0 5.3-1.79 5.8-4.66h-2.2c-.4 1.7-1.78 2.69-3.6 2.69-2.4 0-3.85-1.72-3.85-4.32 0-2.6 1.44-4.3 3.86-4.3 1.81 0 3.2.98 3.6 2.68h2.2c-.5-2.87-2.81-4.65-5.8-4.65-3.52 0-6.04 2.56-6.04 6.27Zm17.79 4.44c-1.63 0-2.5-.87-2.59-2.16h-2.04c.07 1.97 1.31 4 4.53 4 2.88 0 4.79-1.42 4.79-3.61 0-4.83-6.8-2.77-6.8-5.43 0-1.07.87-1.66 2.28-1.66 1.54 0 2.34.95 2.36 2.14h2.02c-.05-2.26-1.54-4-4.38-4-2.69 0-4.32 1.65-4.32 3.57 0 4.83 6.75 2.52 6.75 5.46 0 1.09-.95 1.69-2.6 1.69Z" fill="#92A0B3" />
</svg>